<?xml version="1.0" encoding="UTF-8" standalone="no"?>
<!-- Created with Inkscape (http://www.inkscape.org/) -->

<svg
   xmlns:dc="http://purl.org/dc/elements/1.1/"
   xmlns:cc="http://creativecommons.org/ns#"
   xmlns:rdf="http://www.w3.org/1999/02/22-rdf-syntax-ns#"
   xmlns:svg="http://www.w3.org/2000/svg"
   xmlns="http://www.w3.org/2000/svg"
   xmlns:sodipodi="http://sodipodi.sourceforge.net/DTD/sodipodi-0.dtd"
   xmlns:inkscape="http://www.inkscape.org/namespaces/inkscape"
   width="170mm"
   height="65mm"
   viewBox="0 0 170 65"
   version="1.1"
   id="svg8"
   inkscape:version="0.92.4 (5da689c313, 2019-01-14)"
   sodipodi:docname="duckgames-logo - Copy.svg"
   inkscape:export-filename="C:\Users\blaze\Documents\College Stuff\Freshman Year\Fall Semester 2019\CS 146\DuckGames Deliverables\duckgames-logo.png"
   inkscape:export-xdpi="100"
   inkscape:export-ydpi="100">
  <defs
     id="defs2" />
  <sodipodi:namedview
     id="base"
     pagecolor="#000000"
     bordercolor="#666666"
     borderopacity="1.0"
     inkscape:pageopacity="0"
     inkscape:pageshadow="2"
     inkscape:zoom="0.9899495"
     inkscape:cx="79.527133"
     inkscape:cy="245.19187"
     inkscape:document-units="mm"
     inkscape:current-layer="layer1"
     showgrid="false"
     inkscape:window-width="1920"
     inkscape:window-height="1001"
     inkscape:window-x="-9"
     inkscape:window-y="-9"
     inkscape:window-maximized="1" />
  <metadata
     id="metadata5">
    <rdf:RDF>
      <cc:Work
         rdf:about="">
        <dc:format>image/svg+xml</dc:format>
        <dc:type
           rdf:resource="http://purl.org/dc/dcmitype/StillImage" />
        <dc:title></dc:title>
      </cc:Work>
    </rdf:RDF>
  </metadata>
  <g
     inkscape:label="Layer 1"
     inkscape:groupmode="layer"
     id="layer1"
     transform="translate(0,-232)">
    <path
       style="fill:none;stroke:#000000;stroke-width:0.26458332px;stroke-linecap:butt;stroke-linejoin:miter;stroke-opacity:1"
       d="m 5.6965049,233.57097 c 27.0207221,5.48884 48.3482271,10.53784 49.9794001,22.18337 0.838566,17.94776 -22.240864,28.62572 -35.546846,40.09043 5.01658,-17.49173 -3.375448,-26.21226 -18.9761372,-28.0633 8.097115,-7.84534 21.5574912,-12.79163 4.5435831,-34.2105 z"
       id="path3749"
       inkscape:connector-curvature="0"
       sodipodi:nodetypes="ccccc" />
    <path
       style="fill:none;stroke:#000000;stroke-width:0.26458332px;stroke-linecap:butt;stroke-linejoin:miter;stroke-opacity:1"
       d="m 22.267214,246.66718 20.847023,9.6217 -21.381561,6.41447 0.267269,1.87089 21.381564,-6.1472 -13.630746,17.37252 1.603616,1.60361 17.105248,-20.57975 -26.459682,-12.56167 z"
       id="path3755"
       inkscape:connector-curvature="0" />
    <path
       style="stroke-width:0.06681738"
       d="m 11.716844,235.58833 c -1.370292,0.022 -2.7528682,-0.0205 -4.1155182,0.0415 -0.4716808,0.23751 0.119863,0.70704 0.268696,0.99394 2.4494602,3.47226 4.6879402,7.21377 5.6063422,11.40797 0.623323,2.81903 0.319647,5.91137 -1.126047,8.46373 -1.631783,3.00679 -4.3684522,5.24134 -6.9447357,7.44912 -1.3536663,1.14869 -2.7385158,2.27208 -4.0236368,3.49419 -0.210457,0.39506 0.3177466,0.56343 0.6161032,0.56246 4.3007873,0.60111 8.6061473,1.76125 12.2569553,4.20355 2.824485,1.86484 5.037817,4.63736 6.167696,7.83299 1.431162,3.99982 1.211383,8.39855 0.409889,12.4906 -0.161073,0.90937 -0.446598,1.79884 -0.611926,2.70278 0.06639,0.4017 0.558489,0.25806 0.743734,0.0341 4.788818,-3.95488 9.946487,-7.429 14.920931,-11.14055 4.210722,-3.09931 8.337542,-6.35479 11.924337,-10.17559 3.532682,-3.68724 6.50666,-8.13021 7.561019,-13.19453 0.341312,-1.74926 0.580094,-3.55837 0.347636,-5.33673 -0.530744,-3.11341 -2.611408,-5.73191 -5.046035,-7.63452 -3.754655,-2.93846 -8.22832,-4.75952 -12.688001,-6.33517 -7.253571,-2.48576 -14.733404,-4.23445 -22.214286,-5.87711 -1.351051,0.006 -2.702101,0.0115 -4.053153,0.0172 z m 10.669118,8.96984 c 8.62723,4.07201 17.249495,8.17756 25.841884,12.33146 -5.586124,6.81296 -11.227472,13.58071 -16.885616,20.33389 -0.49421,-0.46917 -0.969674,-0.95751 -1.452364,-1.4384 4.399706,-5.63047 8.844439,-11.22633 13.217054,-16.87752 0.158396,-0.38001 -0.323479,-0.47772 -0.57709,-0.31908 -6.817043,1.92015 -13.616398,3.91778 -20.434106,5.8259 -0.08218,-0.53873 -0.187571,-1.10389 -0.23882,-1.64016 6.955669,-2.09491 13.916118,-4.17733 20.87443,-6.2653 0.458488,-0.28627 -0.101405,-0.62167 -0.412732,-0.69792 -6.644653,-3.05437 -13.28407,-6.12143 -19.914239,-9.20854 -0.116194,-0.71081 -0.204574,-1.43873 -0.28541,-2.16804 0.089,0.0412 0.178006,0.0825 0.267009,0.12371 z"
       id="path3769"
       inkscape:connector-curvature="0" />
    <path
       style="stroke-width:0.06681738"
       d="m 6.153965,233.58786 c -0.4405553,0.10161 -0.176975,0.54772 0.01769,0.75071 0.42329,0.50977 0.747215,1.15076 1.3092598,1.5186 0.84288,0.006 1.841377,-0.0311 2.7425102,-0.0222 1.3433,-0.0116 2.68886,0.0185 4.03071,-0.0427 0.384754,-0.10646 0.16842,-0.60428 -0.163259,-0.58557 -2.640373,-0.56074 -5.2822822,-1.13521 -7.936913,-1.61888 z"
       id="path3781"
       inkscape:connector-curvature="0" />
    <flowRoot
       xml:space="preserve"
       id="flowRoot3815"
       style="font-style:normal;font-variant:normal;font-weight:normal;font-stretch:normal;font-size:96px;line-height:1.25;font-family:Impact;-inkscape-font-specification:Impact;letter-spacing:1.5px;word-spacing:0px;fill:#ffffff;fill-opacity:1;stroke:none;"
       transform="matrix(0.26458333,0,0,0.26458333,-23.709661,126.60747)"><flowRegion
         id="flowRegion3817"
         style="font-style:normal;font-variant:normal;font-weight:normal;font-stretch:normal;font-size:96px;font-family:Impact;-inkscape-font-specification:Impact;letter-spacing:1.5px;word-spacing:0px;fill:#ffffff;"><rect
           id="rect3819"
           width="432.85712"
           height="125.71434"
           x="304.28571"
           y="453.94824"
           style="font-style:normal;font-variant:normal;font-weight:normal;font-stretch:normal;font-size:96px;font-family:Impact;-inkscape-font-specification:Impact;letter-spacing:1.5px;word-spacing:0px;fill:#ffffff;" /></flowRegion><flowPara
         id="flowPara3821">UCKGAMES</flowPara></flowRoot>    <path
       style="fill:#ffffff;stroke-width:1.01015258"
       d="m 23.048163,5.137934 c -4.395478,1.4719476 1.02654,6.042782 2.233578,8.109933 13.08355,18.500305 27.417764,39.56128 25.269403,63.093983 -2.144421,20.634132 -19.769884,34.15498 -34.386618,46.63669 -3.87223,3.96018 -9.5669843,6.94226 -12.1770733,11.79827 2.5217638,3.70144 8.7765633,2.40202 12.6760993,3.99383 23.988618,4.04116 48.569434,17.09334 58.273305,40.49234 7.538641,18.15325 5.00482,38.76209 0.958856,57.5057 -0.832203,1.54542 -2.146039,6.49528 1.262691,5.03103 27.650316,-21.72893 56.990096,-41.30429 84.083366,-63.76588 22.69633,-19.3292 45.77774,-43.31736 49.64939,-74.23832 1.2829,-10.170412 1.31025,-21.133771 -5.05274,-29.773854 C 192.25232,53.268245 167.71136,43.806335 145.46796,35.43263 116.68809,25.61915 87.123915,17.85593 57.194081,12.526647 50.450012,11.127986 43.086253,8.5741654 35.963552,7.3795569 31.682222,6.582717 27.409338,5.3430744 23.048163,5.137934 Z m 32.808255,8.505406 c -0.02972,0.08633 0.03328,-0.147226 0,0 z m 29.464097,35.813064 c 30.823965,13.863469 61.498255,28.357852 91.714745,43.347776 4.99705,1.341548 1.11565,4.473979 -0.97814,6.994555 -18.94455,23.229845 -38.02382,46.591895 -57.46273,69.268015 -5.7076,-2.69729 -2.59473,-6.75019 0.91095,-10.25235 14.85536,-19.45095 30.89821,-38.17305 44.70572,-58.32951 -2.43327,-2.72128 -7.0157,1.16983 -10.18755,1.09927 -23.36061,6.08605 -46.54991,13.56583 -69.953847,19.03275 -1.880397,-5.32393 6.305589,-4.70511 9.208595,-6.37064 23.144012,-7.14142 46.687532,-13.44749 69.358392,-21.868248 -0.006,-3.424636 -5.53563,-3.566065 -7.74153,-5.51477 C 132.46775,75.474985 108.92419,66.279449 86.869284,54.203332 85.337364,53.71301 84.111581,49.489383 85.320515,49.456404 Z"
       id="path4531"
       inkscape:connector-curvature="0"
       transform="matrix(0.26458333,0,0,0.26458333,0,232)" />
  </g>
</svg>
