<?xml version="1.0" encoding="UTF-8" standalone="no"?>
<!-- Created with Inkscape (http://www.inkscape.org/) -->

<svg
   xmlns:dc="http://purl.org/dc/elements/1.1/"
   xmlns:cc="http://creativecommons.org/ns#"
   xmlns:rdf="http://www.w3.org/1999/02/22-rdf-syntax-ns#"
   xmlns:svg="http://www.w3.org/2000/svg"
   xmlns="http://www.w3.org/2000/svg"
   xmlns:sodipodi="http://sodipodi.sourceforge.net/DTD/sodipodi-0.dtd"
   xmlns:inkscape="http://www.inkscape.org/namespaces/inkscape"
   width="176.53894mm"
   height="62.865131mm"
   viewBox="0 0 176.53893 62.86513"
   version="1.1"
   id="svg8"
   inkscape:version="0.92.4 (5da689c313, 2019-01-14)"
   sodipodi:docname="duckgames-logo.svg"
   inkscape:export-filename="C:\Users\blaze\Documents\College Stuff\Freshman Year\Fall Semester 2019\CS 146\DuckGames Deliverables\duckgames-logo.png"
   inkscape:export-xdpi="100"
   inkscape:export-ydpi="100">
  <defs
     id="defs2" />
  <sodipodi:namedview
     id="base"
     pagecolor="#ffffff"
     bordercolor="#666666"
     borderopacity="1.0"
     inkscape:pageopacity="0.0"
     inkscape:pageshadow="2"
     inkscape:zoom="1.1949301"
     inkscape:cx="255.17845"
     inkscape:cy="154.07294"
     inkscape:document-units="mm"
     inkscape:current-layer="layer1"
     showgrid="false"
     inkscape:window-width="1920"
     inkscape:window-height="1001"
     inkscape:window-x="-9"
     inkscape:window-y="-9"
     inkscape:window-maximized="1"
     units="mm"
     fit-margin-top="0"
     fit-margin-left="0"
     fit-margin-right="0"
     fit-margin-bottom="0" />
  <metadata
     id="metadata5">
    <rdf:RDF>
      <cc:Work
         rdf:about="">
        <dc:format>image/svg+xml</dc:format>
        <dc:type
           rdf:resource="http://purl.org/dc/dcmitype/StillImage" />
        <dc:title></dc:title>
      </cc:Work>
    </rdf:RDF>
  </metadata>
  <g
     inkscape:label="Layer 1"
     inkscape:groupmode="layer"
     id="layer1"
     transform="translate(-0.86105424,-233.36908)">
    <path
       style="fill:none;stroke:#000000;stroke-width:0.26458332px;stroke-linecap:butt;stroke-linejoin:miter;stroke-opacity:1"
       d="m 5.6965049,233.57097 c 27.0207221,5.48884 48.3482271,10.53784 49.9794001,22.18337 0.838566,17.94776 -22.240864,28.62572 -35.546846,40.09043 5.01658,-17.49173 -3.375448,-26.21226 -18.9761372,-28.0633 8.097115,-7.84534 21.5574912,-12.79163 4.5435831,-34.2105 z"
       id="path3749"
       inkscape:connector-curvature="0"
       sodipodi:nodetypes="ccccc" />
    <path
       style="fill:none;stroke:#000000;stroke-width:0.26458332px;stroke-linecap:butt;stroke-linejoin:miter;stroke-opacity:1"
       d="m 22.267214,246.66718 20.847023,9.6217 -21.381561,6.41447 0.267269,1.87089 21.381564,-6.1472 -13.630746,17.37252 1.603616,1.60361 17.105248,-20.57975 -26.459682,-12.56167 z"
       id="path3755"
       inkscape:connector-curvature="0" />
    <path
       style="stroke-width:0.06681738"
       d="m 11.716844,235.58833 c -1.370292,0.022 -2.7528682,-0.0205 -4.1155182,0.0415 -0.4716808,0.23751 0.119863,0.70704 0.268696,0.99394 2.4494602,3.47226 4.6879402,7.21377 5.6063422,11.40797 0.623323,2.81903 0.319647,5.91137 -1.126047,8.46373 -1.631783,3.00679 -4.3684522,5.24134 -6.9447357,7.44912 -1.3536663,1.14869 -2.7385158,2.27208 -4.0236368,3.49419 -0.210457,0.39506 0.3177466,0.56343 0.6161032,0.56246 4.3007873,0.60111 8.6061473,1.76125 12.2569553,4.20355 2.824485,1.86484 5.037817,4.63736 6.167696,7.83299 1.431162,3.99982 1.211383,8.39855 0.409889,12.4906 -0.161073,0.90937 -0.446598,1.79884 -0.611926,2.70278 0.06639,0.4017 0.558489,0.25806 0.743734,0.0341 4.788818,-3.95488 9.946487,-7.429 14.920931,-11.14055 4.210722,-3.09931 8.337542,-6.35479 11.924337,-10.17559 3.532682,-3.68724 6.50666,-8.13021 7.561019,-13.19453 0.341312,-1.74926 0.580094,-3.55837 0.347636,-5.33673 -0.530744,-3.11341 -2.611408,-5.73191 -5.046035,-7.63452 -3.754655,-2.93846 -8.22832,-4.75952 -12.688001,-6.33517 -7.253571,-2.48576 -14.733404,-4.23445 -22.214286,-5.87711 -1.351051,0.006 -2.702101,0.0115 -4.053153,0.0172 z m 10.669118,8.96984 c 8.62723,4.07201 17.249495,8.17756 25.841884,12.33146 -5.586124,6.81296 -11.227472,13.58071 -16.885616,20.33389 -0.49421,-0.46917 -0.969674,-0.95751 -1.452364,-1.4384 4.399706,-5.63047 8.844439,-11.22633 13.217054,-16.87752 0.158396,-0.38001 -0.323479,-0.47772 -0.57709,-0.31908 -6.817043,1.92015 -13.616398,3.91778 -20.434106,5.8259 -0.08218,-0.53873 -0.187571,-1.10389 -0.23882,-1.64016 6.955669,-2.09491 13.916118,-4.17733 20.87443,-6.2653 0.458488,-0.28627 -0.101405,-0.62167 -0.412732,-0.69792 -6.644653,-3.05437 -13.28407,-6.12143 -19.914239,-9.20854 -0.116194,-0.71081 -0.204574,-1.43873 -0.28541,-2.16804 0.089,0.0412 0.178006,0.0825 0.267009,0.12371 z"
       id="path3769"
       inkscape:connector-curvature="0" />
    <path
       style="stroke-width:0.06681738"
       d="m 6.153965,233.58786 c -0.4405553,0.10161 -0.176975,0.54772 0.01769,0.75071 0.42329,0.50977 0.747215,1.15076 1.3092598,1.5186 0.84288,0.006 1.841377,-0.0311 2.7425102,-0.0222 1.3433,-0.0116 2.68886,0.0185 4.03071,-0.0427 0.384754,-0.10646 0.16842,-0.60428 -0.163259,-0.58557 -2.640373,-0.56074 -5.2822822,-1.13521 -7.936913,-1.61888 z"
       id="path3781"
       inkscape:connector-curvature="0" />
    <path
       style="font-style:normal;font-variant:normal;font-weight:normal;font-stretch:normal;font-size:96px;line-height:1.25;font-family:Impact;-inkscape-font-specification:Impact;letter-spacing:1.5px;word-spacing:0px;fill:#000000;fill-opacity:1;stroke:none;stroke-width:0.99999994"
       d="m 291.81055,69.060547 c -4.28125,0 -8.07813,0.734375 -11.39063,2.203125 -3.28125,1.437505 -5.85937,3.421874 -7.73437,5.953125 -1.84375,2.53125 -2.95313,5.171891 -3.32813,7.921875 -0.375,2.718765 -0.5625,6.8125 -0.5625,12.28125 V 119.5918 c 0,7.4375 0.60938,13.01564 1.82813,16.73437 1.21875,3.68751 3.70312,6.57812 7.45312,8.67188 3.75,2.09373 8.51563,3.14062 14.29688,3.14062 5.5625,0 10.23437,-1.23439 14.01562,-3.70312 3.8125,-2.46877 6.26563,-5.34377 7.35938,-8.625 1.125,-3.28126 1.6875,-8.84375 1.6875,-16.6875 v -2.95313 h -19.73438 v 9.51563 c 0,4.15624 -0.23437,6.79686 -0.70312,7.92187 -0.4375,1.12499 -1.39063,1.6875 -2.85938,1.6875 -1.53125,0 -2.51563,-0.56251 -2.95312,-1.6875 -0.4375,-1.12501 -0.65625,-3.53126 -0.65625,-7.21875 V 91.138672 c 0,-3.843729 0.21875,-6.343742 0.65625,-7.5 0.43749,-1.156258 1.46875,-1.734375 3.09375,-1.734375 1.4375,0 2.35937,0.484382 2.76562,1.453125 0.4375,0.937499 0.65625,3.328121 0.65625,7.171875 v 13.218753 h 19.73438 v -7.218753 c 0,-7.093745 -0.59375,-12.312502 -1.78125,-15.65625 -1.1875,-3.374992 -3.67188,-6.187497 -7.45313,-8.4375 -3.78125,-2.250003 -8.57812,-3.375 -14.39062,-3.375 z m 107.0625,0 c -5.875,0 -10.67188,1.37499 -14.39063,4.125 -3.68748,2.71874 -5.92187,5.71874 -6.70312,9 -0.78126,3.281235 -1.17188,8.546859 -1.17188,15.796875 V 120.5293 c 0,5.21874 0.1875,9.14061 0.5625,11.76562 0.37498,2.59377 1.31248,5.07812 2.8125,7.45313 1.5,2.37498 3.68749,4.37498 6.5625,6 2.90623,1.59372 6.01562,2.39062 9.32813,2.39062 2.78125,0 5.1875,-0.57814 7.21875,-1.73437 2.06251,-1.18751 3.76562,-2.95312 5.10937,-5.29688 l 1.82813,5.4375 h 12.42187 V 105.81055 H 399.3418 v 11.53125 h 3.98437 v 9 c 0,3.53126 -0.26562,5.90625 -0.79687,7.125 -0.49998,1.21874 -1.46875,1.82812 -2.90625,1.82812 -1.31251,0 -2.18751,-0.53125 -2.625,-1.59375 -0.43752,-1.09374 -0.65625,-3.34374 -0.65625,-6.75 V 90.529297 c 0,-3.874999 0.21873,-6.281251 0.65625,-7.21875 0.43749,-0.937499 1.26563,-1.40625 2.48437,-1.40625 1.40626,0 2.2969,0.54688 2.67188,1.640625 0.375,1.09377 0.5625,3.812514 0.5625,8.15625 v 6.890625 h 19.73437 v -3.28125 c 0,-6.218734 -0.57811,-10.953109 -1.73437,-14.203125 -1.15624,-3.281235 -3.64062,-6.10937 -7.45313,-8.484375 -3.81248,-2.375005 -8.60936,-3.5625 -14.39062,-3.5625 z m 214.45312,0 c -4.68749,0 -8.68749,0.765637 -12,2.296875 -3.31248,1.500019 -5.71873,3.593754 -7.21875,6.28125 -1.46875,2.687496 -2.20312,6.93749 -2.20312,12.75 0,4.031244 0.51562,7.343761 1.54687,9.937498 1.0625,2.59377 2.39063,4.625 3.98438,6.09375 1.59375,1.46875 4.84374,3.82814 9.75,7.07813 4.90623,3.21874 7.98436,5.5156 9.23437,6.89062 1.21875,1.37499 1.82813,4.29686 1.82813,8.76563 0,2.03124 -0.32813,3.56249 -0.98438,4.59375 -0.62501,1.03123 -1.59377,1.54687 -2.90625,1.54687 -1.3125,0 -2.23437,-0.40625 -2.76562,-1.21875 -0.50001,-0.8125 -0.75,-2.64063 -0.75,-5.48437 v -9.23438 h -18.32813 v 4.96875 c 0,5.68751 0.57812,10.07813 1.73438,13.17188 1.15626,3.09374 3.59377,5.64062 7.3125,7.64062 3.75002,2 8.26564,3 13.54687,3 4.8125,0 9.03123,-0.8594 12.65625,-2.57812 3.625,-1.75003 6.06251,-3.90626 7.3125,-6.46875 1.28126,-2.5625 1.92188,-6.54687 1.92188,-11.95313 0,-7.43748 -1.14063,-12.82813 -3.42188,-16.17187 -2.28127,-3.34378 -7.81252,-7.62501 -16.59375,-12.843753 -3.0625,-1.812485 -4.92187,-3.359365 -5.57812,-4.640625 -0.68752,-1.281235 -1.03125,-3.187475 -1.03125,-5.71875 0,-1.968731 0.29686,-3.437482 0.89062,-4.40625 0.62501,-0.968743 1.53125,-1.453125 2.71875,-1.453125 1.09375,0 1.87501,0.35936 2.34375,1.078125 0.46876,0.71874 0.70313,2.390617 0.70313,5.015625 v 5.625 h 18.32812 v -3 c 0,-6.031244 -0.59375,-10.296869 -1.78125,-12.796875 -1.15626,-2.531251 -3.54688,-4.624986 -7.17187,-6.28125 -3.59375,-1.656239 -7.95311,-2.484375 -13.07813,-2.484375 z m -398.25,1.59375 v 44.906253 c 0,8.56249 0.15625,14.1875 0.46875,16.875 0.3125,2.65625 1.32813,5.1875 3.04688,7.59375 1.71875,2.40625 4.3125,4.35938 7.78125,5.85937 3.46875,1.5 7.46875,2.25 12,2.25 4.09375,0 7.64062,-0.62501 10.64062,-1.875 3.03125,-1.28126 5.46875,-3.14063 7.3125,-5.57812 1.84375,-2.46874 2.95313,-4.85936 3.32813,-7.17188 0.375,-2.34373 0.5625,-6.39063 0.5625,-12.14062 V 70.654297 h -19.73438 v 55.921873 c 0,3.78124 -0.1875,6.1875 -0.5625,7.21875 -0.34375,0.99999 -1.14062,1.5 -2.39062,1.5 -1.09375,0 -1.82813,-0.45312 -2.20313,-1.35937 -0.34375,-0.9375 -0.51562,-3.06252 -0.51562,-6.375 V 70.654297 Z m 109.03125,0 v 75.890623 h 19.73438 v -32.53125 l 7.96875,32.53125 h 20.39062 l -12.375,-41.625 11.29688,-34.265623 H 352.60742 L 343.8418,100.13867 V 70.654297 Z m 112.96875,0 -10.03125,75.890623 h 20.4375 l 1.17188,-13.64062 h 7.07812 l 0.98438,13.64062 h 20.20312 L 465.62305,70.654297 Z m 44.71875,0 v 75.890623 h 17.25 V 96.482422 l 7.26563,50.062498 h 12.23437 l 6.89063,-51.234373 v 51.234373 h 17.25 V 70.654297 h -25.73438 l -4.5,35.437503 -2.71875,-19.312503 c -0.84374,-6.187515 -1.64061,-11.562506 -2.39062,-16.125 z m 70.3125,0 v 75.890623 h 34.21875 v -15.1875 H 571.8418 v -16.6875 h 12.32812 v -14.4375 H 571.8418 V 85.841797 h 13.17187 v -15.1875 z m -99.9375,16.96875 c 0.99999,12.625003 1.99999,23.234383 3,31.828123 h -6.75 c 0.50001,-6.71874 1.75,-17.32812 3.75,-31.828123 z"
       transform="matrix(0.26458333,0,0,0.26458333,0.86105424,233.36908)"
       id="path820"
       inkscape:connector-curvature="0" />
  </g>
</svg>
